<?xml version="1.0" encoding="UTF-8"?>
<svg version="1.1" viewBox="0 0 1140 817" width="1280" height="1280" xmlns="http://www.w3.org/2000/svg">
<path transform="translate(1106,10)" d="m0 0 4 1 4 15v9l-8 15v9l5 17 1 21 3 17 6 12 2 8 1 19 2 16 5 10-1 24-1 7 3 12v28l-5 5-5 4-6 10-3 3-4 15-3 7-2 8v8l1 9-4 9-2 16-4 10 1 9 5 19 1 16-5 15-1 28-1 6v12l5 13v7l-5 8-6 4-8 9-10 2-6 8-3 3-2 8v13l-4 10v22l4 11v7l-3 9-1 2v14l3 9 3 3 3 7 2 3-1 8-1 5-1 15-3 9-10 9-2 4v16l-3 10-5 3-10 2-12 6-9 3-11 11-5 9-5 3-10 4-5 5-7 9-4 10-5 10-8 5h-10l-28-6-15-5-15-2-24-7-14-3-15-1-38-1h-37l-39 4-16 3-13 6-9 3-8 6-11 6-8 4-11 10-14 4-4 2-9 1h-11l-6-3-10-2-4-2-66-1-13-3-10-2-6-3-11-1-9-3-8-1-5-5v-2l-6-2-3-3-13-5-7-4-6-7-5-4-11-5-4-1-13-1-10-3-8-5h-16l-13 4-7 6-15 4-22 5-17 5-22 3-27 3h-17l-31-2-48-2h-31l-76 1-12 3-10 3h-3v-708h47l14 1 13 4 16 6 29 6 18 2 28 1 53-1h43l21-2 43-7 12-1 24 1 29 3h48l13-3 9-6 8-5 12-6 15-3 7-2h13l12-4 15-1 11-3h18l3-1 21-1 9-3 16-1 9-3 50-1 11-4h18l12-4h92l13 4 13 2 9 2 28 1 12 3 13 2 6 2 17-1 5 1h76l18-5 23-6 11-6 10-8 14-1z" fill="#EDEEE7"/>
<path transform="translate(1074,348)" d="m0 0 9 5 8 2v5l-1 1v6l3 3 4 2-2 10 5 1v6l-5 5 1 6v10l-1 2-3 1-3 15-3 5h-2l1 8-5 1-5-4-1-9v-12h7l2-3 1-12-6-2-5-10-8-6-4-8 1-8-3-6 1-8 4-2 3 3 4-1z" fill="#D6D6D2"/>
<path transform="translate(1061,447)" d="m0 0 3 2v8l5 9 5 6 1 9h-7l-3-6-7-1-3-2-1-6-3 1-1 6-6-1-1-14 2-2 14-3 1-5z" fill="#D6D6D2"/>
<path transform="translate(1083,326)" d="m0 0 6 1 1 5-1 4h3l1-5 1-1h5v14l-2 5h-2l-1 2-2-3-10 1-2-3v-8l-1-8z" fill="#D6D6D2"/>
<path transform="translate(1098,147)" d="m0 0 5 1 2 2 5-1h4v9l-2 5 1 2 4-4 1 5-1 4v5l-2 2h-10l-1-5 4-4-6-4-2-6-3-5v-5z" fill="#D6D6D2"/>
<path transform="translate(1065,435)" d="m0 0h2l3 3 3 2 2 7 9 7 7 14 1 6-1 2-5-2-3-6-3-2-2-7-4-1-3-6v-2h-2l-4-12z" fill="#D6D6D2"/>
<path transform="translate(981,719)" d="m0 0 6 1 1 2 7-1 2 4h6l-1 4-3 3-1 3-6-3-12 4-1-5v-10z" fill="#D6D6D2"/>
<path transform="translate(1103,287)" d="m0 0h4l-1 7-2 8-1 13-2 10-2 1v-3l-5-2-1-1v-6l4-2-1-12 2-2h4v-10z" fill="#D6D6D2"/>
<path transform="translate(1072,358)" d="m0 0h5l4 2 4 1 1 4-3 4-4 1-3 7-4 1-4-2 1-4 3-1z" fill="#EEEFE8"/>
<path transform="translate(993,704)" d="m0 0 13 2 3 4 7 1 1 1v5l-2 2-5 2-5 1 2-10-3 1-1 3h-3l-1 4-3 1v-4l3-2-2-8-4-1z" fill="#D6D6D2"/>
<path transform="translate(1047,676)" d="m0 0 3 1-2 5-1 9-3 2-2 7h-4l-1-4v-6-3-4l-1-6 5 1 4 3z" fill="#D6D6D2"/>
<path transform="translate(984,557)" d="m0 0 4 1 1 1 9 2 2 3v6l-4 2h-8l-3-4-2-9z" fill="#D6D6D2"/>
<path transform="translate(1061,317)" d="m0 0 3 1 3 9 2 2 1 10-2 4-3 1-3-3 1-8-4-3v-11z" fill="#D6D6D2"/>
<path transform="translate(1100,25)" d="m0 0 9 2 1 4v9l-3 3-6-6-1-2-5-2 1-4z" fill="#D6D6D2"/>
<path transform="translate(1063,633)" d="m0 0 4 1-2 10-1 15-1 5-4-1v-10l-2-5 2-3v-9z" fill="#D8D8D4"/>
<path transform="translate(1063,398)" d="m0 0 4 2 1 3 6 2 2 4-2 5-7-2v-2h-2l-4-6 1-4z" fill="#D6D6D2"/>
<path transform="translate(1119,178)" d="m0 0h3l2 6h3l2-4 2 2-1 15-5-2-3-8-4-2z" fill="#D7D7D3"/>
<path transform="translate(1044,536)" d="m0 0 3 3v11l-5 4-6 1-1-4 4-3 1-4 2-1z" fill="#D6D6D2"/>
<path transform="translate(1115,236)" d="m0 0 4 1 3 4v7l5 2 1 3-4 4-4 1v-10l-4-5-2-6z" fill="#D6D6D2"/>
<path transform="translate(1100,388)" d="m0 0 2 2v8l-4 12h-2l-2-16 5-5z" fill="#EBECE5"/>
<path transform="translate(1056,489)" d="m0 0 6 5 3 1-1 4-6 3-5-1-1-1 1-7z" fill="#D6D6D2"/>
<path transform="translate(1128,217)" d="m0 0h3l1 5v11l-1 2-4-1v-15z" fill="#DADAD6"/>
<path transform="translate(1048,660)" d="m0 0 6 1 1 6-1 2-8-1-1-1v-5z" fill="#D6D6D2"/>
<path transform="translate(1047,625)" d="m0 0 4 1 6 4 1 4-4 2h-3l-4-7z" fill="#D6D6D2"/>
<path transform="translate(1093,288)" d="m0 0h3v6h-2v7l-2 4-3-3v-7z" fill="#D6D6D2"/>
<path transform="translate(1099,270)" d="m0 0h2l2 5-1 8-4 1-2-5 2-5z" fill="#D6D6D2"/>
<path transform="translate(1056,571)" d="m0 0h2l2 6-1 6h-4l-1-1v-9z" fill="#D6D6D2"/>
<path transform="translate(1084,374)" d="m0 0 4 2v8l-5 1-2-7 1-3z" fill="#EEEFE8"/>
<path transform="translate(1055,528)" d="m0 0h4l1 6-1 4-5-1-1-7z" fill="#D6D6D2"/>
<path transform="translate(968,679)" d="m0 0h4l3 9v6h-2l-4-9-2-5z" fill="#D6D6D2"/>
<path transform="translate(1103,264)" d="m0 0h4l2 3 5 2-2 5h-4l-2-5-3-2z" fill="#D6D6D2"/>
<path transform="translate(1103,287)" d="m0 0h4l-1 7-2 8h-2v-14z" fill="#DDDED9"/>
<path transform="translate(1097,373)" d="m0 0h2l2 9v6h-1l-1-5-5-1 1-5z" fill="#EEEFE8"/>
<path transform="translate(1098,337)" d="m0 0h1v7l-2 5-3-4-1-6z" fill="#EEEFE8"/>
<path transform="translate(1038,669)" d="m0 0h6l1 4-1 2h-7v-5z" fill="#D6D6D2"/>
<path transform="translate(1038,511)" d="m0 0 3 1 1 2v6l-4 1-2-5 1-4z" fill="#D6D6D2"/>
<path transform="translate(1102,49)" d="m0 0 3 1v8l-4-1-2-3 1-4z" fill="#D6D6D2"/>
<path transform="translate(1102,67)" d="m0 0h5l2 5-1 1h-7z" fill="#D6D6D2"/>
<path transform="translate(1012,698)" d="m0 0h5l1 4-3 3-4-1v-5z" fill="#D6D6D2"/>
<path transform="translate(988,574)" d="m0 0 3 2v6l-3 1-3-3 1-5z" fill="#D6D6D2"/>
<path transform="translate(1059,481)" d="m0 0 8 1v6l-8-3z" fill="#D6D6D2"/>
<path transform="translate(1125,204)" d="m0 0 3 1 1 3-2 4-5-1v-5z" fill="#D6D6D2"/>
<path transform="translate(1019,707)" d="m0 0 5 2 2 2v3l-4 1-4-4z" fill="#D6D6D2"/>
<path transform="translate(1050,561)" d="m0 0 5 1v5h-5l-2-4z" fill="#D6D6D2"/>
<path transform="translate(1036,523)" d="m0 0 2 2-1 5-5 1v-5z" fill="#D6D6D2"/>
<path transform="translate(1108,224)" d="m0 0h4v6l-4 1-1-1v-5z" fill="#D6D6D2"/>
<path transform="translate(1031,700)" d="m0 0h2l-1 5h-2v2h-5l3-5z" fill="#D6D6D2"/>
<path transform="translate(983,685)" d="m0 0h3l1 7h-4l-1-6z" fill="#D6D6D2"/>
<path transform="translate(982,614)" d="m0 0 4 1v5l-4 1-1-1v-5z" fill="#D6D6D2"/>
<path transform="translate(1103,310)" d="m0 0 2 4-1 8-1 2h-2l1-9z" fill="#EEEFE8"/>
<path transform="translate(1099,118)" d="m0 0 2 1-1 4h-6v-3z" fill="#D6D6D2"/>
<path transform="translate(1094,38)" d="m0 0 5 1 1 2-1 2h-5l-1-3z" fill="#D6D6D2"/>
</svg>
