
<svg id="Livello_2" data-name="Livello 2" xmlns="http://www.w3.org/2000/svg" viewBox="0 0 458.27 71.6">
                                                                                                        <rect x="11.42" y="2.37" width="427.21" height="64.48" fill="#f0f2f2"/>
                                                                                                        <g fill="#1b1b1b">
                                                                                                         <path d="M321.52,48.61c-.9,.73-1.35,1.69-1.35,2.88s.37,2.05,1.12,2.71c.75,.66,1.71,.98,2.88,.98,.89,0,1.79-.18,2.69-.54,.9-.36,1.68-.91,2.34-1.63v-5.48h-3.83c-1.66,0-2.95,.36-3.85,1.09Z"/>
        <path d="M182.72,48.61c-.9,.73-1.35,1.69-1.35,2.88s.37,2.05,1.12,2.71c.75,.66,1.71,.98,2.88,.98,.89,0,1.79-.18,2.69-.54,.9-.36,1.68-.91,2.34-1.63v-5.48h-3.83c-1.66,0-2.95,.36-3.85,1.09Z"/>
        <path d="M0,0V71.6H458.27V0H0ZM402.26,26.9c2.77-1.65,6.09-2.48,9.98-2.48s7.25,.82,10,2.46c2.32,1.38,4.17,3.22,5.58,5.49h-31.14c1.4-2.26,3.26-4.09,5.57-5.48Zm-55.34-1.78h16.95l.42,5.31c1.27-1.9,2.82-3.38,4.66-4.43,1.84-1.05,3.93-1.58,6.28-1.58,3.56,0,6.38,1.21,8.44,3.62,.97,1.13,1.7,2.58,2.21,4.33h-38.95v-7.25Zm-30.18,.35c2.36-.7,4.99-1.05,7.89-1.05,5.18,0,9.29,1.19,12.34,3.57,1.54,1.2,2.69,2.67,3.45,4.39h-30.38l-.07-4.4c2.16-.96,4.41-1.79,6.77-2.5Zm-29.06-17.16h12.69v9.6h-12.69V8.32Zm-4.96,16.8h17.65v7.25h-17.65v-7.25Zm-34.51,1.78c2.12-1.65,4.63-2.48,7.54-2.48,2.02,0,3.76,.42,5.22,1.25,1.46,.83,2.75,2,3.85,3.5v-12.48l-5.34-1.12v-7.24h17.68v24.06h-33.22c1.09-2.28,2.51-4.11,4.27-5.48Zm-38.16-1.78h16.91l.28,4.64,.07,.95c.84-2.16,1.89-3.74,3.15-4.76,1.25-1.02,2.82-1.53,4.69-1.53,.52,0,1.12,.04,1.83,.12,.7,.08,1.42,.23,2.14,.44l-.8,7.39h-28.27v-7.25Zm-32.12,.35c2.36-.7,4.99-1.05,7.89-1.05,5.18,0,9.29,1.19,12.34,3.57,1.54,1.2,2.69,2.67,3.45,4.39h-30.38l-.07-4.4c2.16-.96,4.41-1.79,6.77-2.5Zm-33.7-.35h16.49v7.25h-16.49v-7.25Zm-22.11,0h16.42v7.25h-16.42v-7.25Zm-37.79-10.58c3.61-2.2,7.97-3.3,13.08-3.3,3.49,0,7,.53,10.51,1.6,3.52,1.07,6.61,2.75,9.28,5.04v11.99h-8.79l-1.86-6.5c-.8-.82-1.93-1.5-3.39-2.04-1.46-.54-3.11-.81-4.94-.81-2.81,0-5.17,.7-7.07,2.09-1.9,1.39-3.32,3.33-4.27,5.82-.47,1.22-.81,2.54-1.05,3.95h-12.29c.42-3.17,1.25-6.07,2.54-8.69,1.9-3.89,4.65-6.94,8.26-9.14Zm-34.59-6.22h17.68v24.06h-12.34v-15.69l-5.34-1.12v-7.24Zm-24.75,3.66h22.92v7.24l-5.31,1.12v12.03h-12.3v-12.03l-5.31-1.12v-7.24Zm22.92,51.19H24.99v-7.21l5.31-1.12v-14.52h12.3v14.52l5.31,1.12v7.21Zm23.98,0h-21.3v-7.21l4.5-1.12v-14.52h12.34v14.52l4.46,1.12v7.21Zm37.35-.58c-3.48,.88-7.25,1.32-11.3,1.32-5.3,0-9.78-1.03-13.45-3.09-3.67-2.06-6.46-4.93-8.38-8.6-1.81-3.45-2.76-7.43-2.86-11.91h12.25c.08,2.74,.56,5.15,1.46,7.21,1,2.27,2.46,4.03,4.38,5.27,1.92,1.24,4.29,1.86,7.1,1.86,1.48,0,2.94-.15,4.39-.46,1.45-.3,2.59-.64,3.41-1.02v-6.61l-5.77-.7v-5.56h18.14v18.29c-2.77,1.78-5.89,3.11-9.37,3.99Zm56.23,.58h-15.47l-.81-4.32c-1.22,1.64-2.7,2.9-4.45,3.76-1.75,.87-3.71,1.3-5.89,1.3-3.94,0-7.03-1.24-9.28-3.73-2.25-2.48-3.38-6.33-3.38-11.53v-8.34h12.34v8.41c0,1.88,.39,3.3,1.18,4.27,.79,.97,1.96,1.46,3.53,1.46,.91,0,1.82-.17,2.72-.51,.9-.34,1.71-.85,2.41-1.53v-12.1h12.34v14.52l4.75,1.12v7.21Zm41.55,0h-14.41c-.3-.42-.63-.98-.98-1.69s-.6-1.41-.74-2.11c-1.15,1.43-2.44,2.54-3.87,3.34-1.43,.8-3.25,1.2-5.45,1.2-3.68,0-6.68-1.04-9-3.13-2.32-2.09-3.48-4.86-3.48-8.33s1.44-6.48,4.31-8.75c2.67-2.11,6.63-3.23,11.84-3.38h17.49v11.89c0,.54,0,1.07,.02,1.58,.01,.52,.06,1.01,.16,1.48l4.11,.7v7.21Zm25.07,0h-21.2v-7.21l4.43-1.12v-14.52h12.34v14.52l4.43,1.12v7.21Zm49.5,0h-15.12l-.91-4.71c-1.15,1.78-2.51,3.13-4.08,4.06-1.57,.93-3.43,1.39-5.59,1.39-2.98,0-5.54-.79-7.68-2.36-2.14-1.57-3.79-3.78-4.92-6.63-1.14-2.85-1.71-6.17-1.71-9.97v-.74c0-1.37,.09-2.66,.23-3.91h12.39c-.19,1.18-.28,2.48-.28,3.91v.74c0,3.02,.42,5.36,1.27,7.01s2.36,2.48,4.54,2.48c1.03,0,1.99-.2,2.88-.6,.89-.4,1.63-1,2.21-1.79v-11.75h12.34v14.52l4.43,1.12v7.21Zm23.2,0h-21.23v-7.21l4.46-1.12v-14.52h12.34v14.52l4.43,1.12v7.21Zm41.03,0h-14.41c-.3-.42-.63-.98-.98-1.69s-.6-1.41-.74-2.11c-1.15,1.43-2.44,2.54-3.87,3.34-1.43,.8-3.25,1.2-5.45,1.2-3.68,0-6.68-1.04-9-3.13-2.32-2.09-3.48-4.86-3.48-8.33s1.44-6.48,4.31-8.75c2.67-2.11,6.63-3.23,11.84-3.38h17.49v11.89c0,.54,0,1.07,.02,1.58,.01,.52,.06,1.01,.16,1.48l4.11,.7v7.21Zm21.87,0h-19.93v-7.21l4.43-1.12v-14.52h12.34v14.52l3.16,1.12v7.21Zm23.48,0h-20.39v-7.21l3.59-1.12v-14.52h12.38v14.52l4.43,1.12v7.21Zm39.59-18.67c0,3.82-.73,7.19-2.2,10.11-1.46,2.92-3.57,5.2-6.33,6.84-2.75,1.64-6.06,2.46-9.93,2.46s-7.26-.81-10.04-2.44c-2.78-1.63-4.9-3.9-6.36-6.82-1.46-2.92-2.2-6.3-2.2-10.14v-.7c0-1.21,.08-2.37,.23-3.49h12.36c-.16,1.06-.25,2.22-.25,3.49v.7c0,2.09,.2,3.88,.6,5.38,.4,1.5,1.05,2.65,1.97,3.45,.91,.8,2.14,1.2,3.69,1.2s2.7-.4,3.6-1.21c.9-.81,1.56-1.96,1.97-3.46,.41-1.5,.62-3.28,.62-5.34v-.7c0-1.27-.09-2.42-.26-3.49h12.3c.15,1.12,.23,2.28,.23,3.49v.7Z"/>
        </g>
    </svg>
